# xmcd
# Track frame offsets:
# 150
# 16543
# 32295
# 49464
# 64747
# 82590
# 95365
# 108144
# 123789
# 138877
# 155155
# 172871
# 189451
# 207847
# 225835
# 241534
# 257606
# 270309
#
# Disc length: 3830 seconds
# Revision: 0
# Processed by: cddbd v1.5.1PL2 Copyright (c) Steve Scherf et al.
# Submitted via: VisiTrax 2.10.0.248 - For more info visit www.synapsa.com
#
DISCID=c50ef412
DTITLE=Various Artist - PromoOnly Country May 2006
DYEAR=2006
DGENRE=
TTITLE0=Brad Paisley - The World
TTITLE1=Wreckers - Leave The Pieces
TTITLE2=Road Hammers - Nashville Bound
TTITLE3=Kenny Chesney - Summertime
TTITLE4=Dixie Chicks - Not Ready To Make Nice
TTITLE5=Sugarland - Down In Mississippi (up to no good)
TTITLE6=Ashley Monroe - Satisfied
TTITLE7=Melanie Laine - Queen Of Hearts
TTITLE8=Bomshel - It Was Absolutely Finger Lickin', Grits...........
TTITLE9=Cross Canadian Ragweed - This Time Around
TTITLE10=Diamond Rio - God Only Cries
TTITLE11=Ronnie Milsap - Local Girls
TTITLE12=Mark Wills - Hank
TTITLE13=Jace Everett - Nowhere In The Neighborhood
TTITLE14=Lost Trailers - Call Me Crazy
TTITLE15=Rio Grand - Kill Me Now
TTITLE16=Gord Bamford - Life Is Good
TTITLE17=Van Zant - Things I Miss The Most
EXTD=
EXTT0=
EXTT1=
EXTT2=
EXTT3=
EXTT4=
EXTT5=
EXTT6=
EXTT7=
EXTT8=
EXTT9=
EXTT10=
EXTT11=
EXTT12=
EXTT13=
EXTT14=
EXTT15=
EXTT16=
EXTT17=
PLAYORDER=
